<svg id="Capa_1" enable-background="new 0 0 512 512" height="512" viewBox="0 0 512 512" width="512" xmlns="http://www.w3.org/2000/svg"><g><g><path d="m416.5 461.754h-321c-9.389 0-17-7.611-17-17v-420.254c0-9.389 7.611-17 17-17h321c9.389 0 17 7.611 17 17v420.254c0 9.389-7.611 17-17 17z" fill="#b3dafe"/><circle cx="133.985" cy="64.667" fill="#596c76" r="22.5"/><path d="m416.5 7.5h-34.016c9.389 0 17 7.611 17 17v420.254c0 9.389-7.611 17-17 17h34.016c9.389 0 17-7.611 17-17v-420.254c0-9.389-7.611-17-17-17z" fill="#8ac9fe"/><path d="m487.723 504.5h-269.837c-9.266 0-16.777-7.512-16.777-16.777v-181.169c0-9.266 7.511-16.777 16.777-16.777h269.837c9.266 0 16.777 7.511 16.777 16.777v181.169c0 9.265-7.512 16.777-16.777 16.777z" fill="#60b7ff"/><path d="m184.108 259.974h-159.608c-9.389 0-17-7.611-17-17v-97.33c0-9.389 7.611-17 17-17h159.608c9.389 0 17 7.611 17 17v97.33c0 9.389-7.611 17-17 17z" fill="#60b7ff"/><circle cx="57.761" cy="194.304" fill="#596c76" r="22.5"/><path d="m487.723 289.777h-34.016c9.266 0 16.778 7.511 16.778 16.777v181.169c0 9.266-7.512 16.777-16.778 16.777h34.016c9.266 0 16.777-7.511 16.777-16.777v-181.169c0-9.266-7.511-16.777-16.777-16.777z" fill="#26a6fe"/><path d="m361.688 414.7 140.886-115.938c-2.807-5.34-8.4-8.986-14.852-8.986h-269.836c-6.452 0-12.044 3.646-14.852 8.986l140.886 115.938c5.161 4.248 12.607 4.248 17.768 0z" fill="#8ac9fe"/><circle cx="352.804" cy="353.831" fill="#596c76" r="22.5"/><path d="m502.574 298.763v-.001c-.121-.23-.254-.453-.385-.677-.102-.174-.206-.346-.313-.516-.138-.218-.279-.435-.427-.646-.133-.189-.274-.372-.415-.555-.235-.308-.481-.607-.737-.897-.153-.174-.307-.346-.467-.513-.162-.169-.328-.335-.497-.498-.192-.184-.39-.362-.591-.537-.204-.178-.41-.353-.622-.521-.267-.211-.538-.416-.818-.611-.159-.111-.322-.217-.485-.323-.261-.169-.527-.33-.798-.485-.139-.079-.275-.163-.417-.238-.396-.211-.801-.406-1.215-.585-.135-.059-.274-.111-.411-.166-.331-.133-.666-.256-1.007-.369-.136-.045-.271-.092-.408-.133-.457-.137-.92-.259-1.392-.358-.09-.019-.182-.031-.271-.048-.406-.078-.818-.14-1.234-.188-.138-.016-.276-.031-.415-.044-.502-.045-1.009-.077-1.523-.077-.001 0-.003 0-.004 0h-34.015c9.265.001 16.776 7.512 16.776 16.777v18.616z" fill="#60b7ff"/><path d="m217.886 504.5h269.837c4.706 0 8.953-1.943 12-5.064l-124.937-95.513-13.098 10.777c-5.161 4.247-12.607 4.247-17.768 0l-13.097-10.778-124.937 95.513c3.047 3.122 7.294 5.065 12 5.065z" fill="#26a6fe"/><path d="m489.822 504.355c.443-.056.885-.115 1.317-.205.107-.022.209-.057.315-.081.445-.101.887-.209 1.317-.345.066-.021.127-.049.193-.071.466-.154.926-.32 1.373-.512.03-.013.058-.03.088-.043.478-.209.947-.437 1.401-.688.002-.001.005-.003.007-.005 1.438-.798 2.748-1.801 3.888-2.969l-29.238-22.352v10.638c0 9.266-7.512 16.777-16.778 16.777h34.016c.585 0 1.162-.031 1.732-.089.126-.012.245-.04.369-.055z" fill="#0593fc"/></g><g><path d="m487.723 282.277h-46.723v-257.777c0-13.509-10.99-24.5-24.5-24.5h-66.051c-4.143 0-7.5 3.358-7.5 7.5s3.357 7.5 7.5 7.5h66.051c5.238 0 9.5 4.262 9.5 9.5v257.776h-208.114c-13.395 0-24.277 10.915-24.277 24.278v147.7h-98.109c-5.238 0-9.5-4.262-9.5-9.5v-177.28c104.915 0 98.388.018 99.389-.034 12.97-.661 23.219-11.465 23.219-24.466v-97.329c0-13.509-10.99-24.5-24.5-24.5h-98.108v-96.645c0-5.238 4.262-9.5 9.5-9.5h219.949c4.143 0 7.5-3.358 7.5-7.5s-3.357-7.5-7.5-7.5h-219.949c-13.51 0-24.5 10.991-24.5 24.5v96.645h-46.5c-13.51 0-24.5 10.991-24.5 24.5v97.33c0 13.509 10.99 24.5 24.5 24.5h46.5v177.28c0 13.509 10.99 24.5 24.5 24.5h98.108v18.469c0 12.821 10.089 23.592 23.023 24.245h.007c.414.021.83.032 1.247.032 276.677 0 271.091-.032 271.091-.032 12.866-.65 23.023-11.355 23.023-24.245v-47.104c0-4.142-3.357-7.5-7.5-7.5s-7.5 3.358-7.5 7.5v47.104c0 .062-.008.123-.009.185l-110.14-84.201 110.15-90.645v92.557c0 4.142 3.357 7.5 7.5 7.5s7.5-3.358 7.5-7.5v-99.065c0-13.354-10.87-24.278-24.277-24.278zm-472.723-39.303v-97.33c0-5.238 4.262-9.5 9.5-9.5h159.608c5.238 0 9.5 4.262 9.5 9.5v97.329c0 5.144-4.201 9.5-9.5 9.5h-105.608c-.003 0-.006 0-.01 0h-53.99c-5.238.001-9.5-4.261-9.5-9.499zm476.556 55.142-134.633 110.793c-2.475 2.037-5.991 1.848-8.237 0-7.969-6.558-126.885-104.416-134.633-110.792 1.176-.53 2.426-.84 3.833-.84h269.837c1.228 0 2.577.268 3.833.839zm-282.938 189.792c-.001-.062-.009-.123-.009-.185 0-6.931 0-165.185 0-174.66l110.149 90.644zm166.339-74.413 109.23 83.505c-10.553 0-251.352 0-262.765 0l109.229-83.505 8.503 6.997c7.945 6.54 19.49 6.429 27.3 0z"/><path d="m103.985 64.667c0 16.542 13.458 30 30 30s30-13.458 30-30-13.458-30-30-30-30 13.458-30 30zm45 0c0 8.271-6.729 15-15 15s-15-6.729-15-15 6.729-15 15-15 15 6.729 15 15z"/><path d="m90.596 194.304c0-16.542-13.458-30-30-30s-30 13.458-30 30 13.458 30 30 30 30-13.458 30-30zm-45 0c0-8.271 6.729-15 15-15s15 6.729 15 15-6.729 15-15 15-15-6.729-15-15z"/><path d="m352.805 383.831c16.542 0 30-13.458 30-30s-13.458-30-30-30-30 13.458-30 30 13.458 30 30 30zm0-45c8.271 0 15 6.729 15 15s-6.729 15-15 15-15-6.729-15-15 6.728-15 15-15z"/><path d="m179.532 65.124c0 4.142 3.357 7.5 7.5 7.5h194.99c4.143 0 7.5-3.358 7.5-7.5s-3.357-7.5-7.5-7.5h-194.99c-4.142 0-7.5 3.358-7.5 7.5z"/><path d="m110 201.809h62.033c4.143 0 7.5-3.358 7.5-7.5s-3.357-7.5-7.5-7.5h-62.033c-4.143 0-7.5 3.358-7.5 7.5s3.357 7.5 7.5 7.5z"/></g></g></svg>