<?xml version="1.0" encoding="UTF-8"?>
<svg xmlns="http://www.w3.org/2000/svg" xmlns:xlink="http://www.w3.org/1999/xlink" width="50pt" height="50pt" viewBox="0 0 50 50" version="1.1">
<g id="surface16740085">
<path style=" stroke:none;fill-rule:nonzero;fill:rgb(0%,0%,0%);fill-opacity:1;" d="M 12.5 46.875 C 7.328125 46.875 3.125 42.671875 3.125 37.5 L 3.125 12.5 C 3.125 7.328125 7.328125 3.125 12.5 3.125 L 37.5 3.125 C 42.671875 3.125 46.875 7.328125 46.875 12.5 L 46.875 37.5 C 46.875 42.671875 42.671875 46.875 37.5 46.875 Z M 12.5 46.875 "/>
<path style=" stroke:none;fill-rule:nonzero;fill:rgb(20.392157%,59.607846%,85.882354%);fill-opacity:1;" d="M 37.5 3.75 C 42.324219 3.75 46.25 7.675781 46.25 12.5 L 46.25 37.5 C 46.25 42.324219 42.324219 46.25 37.5 46.25 L 12.5 46.25 C 7.675781 46.25 3.75 42.324219 3.75 37.5 L 3.75 12.5 C 3.75 7.675781 7.675781 3.75 12.5 3.75 L 37.5 3.75 M 37.5 2.5 L 12.5 2.5 C 6.976562 2.5 2.5 6.976562 2.5 12.5 L 2.5 37.5 C 2.5 43.023438 6.976562 47.5 12.5 47.5 L 37.5 47.5 C 43.023438 47.5 47.5 43.023438 47.5 37.5 L 47.5 12.5 C 47.5 6.976562 43.023438 2.5 37.5 2.5 Z M 37.5 2.5 "/>
<path style=" stroke:none;fill-rule:nonzero;fill:rgb(20.392157%,59.607846%,85.882354%);fill-opacity:1;" d="M 41.785156 7.097656 C 41.691406 6.824219 41.421875 6.660156 41.136719 6.679688 C 40.851562 6.707031 40.621094 6.921875 40.578125 7.207031 C 40.574219 7.242188 40.027344 10.703125 38.910156 12.550781 C 37.617188 14.683594 33.484375 17.03125 27.570312 18.988281 C 26.394531 19.378906 25.234375 19.71875 24.144531 20.035156 C 22.421875 20.539062 20.933594 20.972656 19.765625 21.484375 C 14.804688 23.660156 11.183594 27.191406 9.296875 31.703125 C 7.511719 35.96875 7.839844 40.511719 7.855469 40.703125 C 7.878906 41.007812 8.125 41.25 8.429688 41.273438 C 8.445312 41.277344 8.460938 41.277344 8.480469 41.277344 C 8.765625 41.277344 9.019531 41.082031 9.085938 40.796875 C 9.101562 40.746094 10.339844 35.664062 13.066406 33.675781 C 14.859375 32.367188 17.75 31.6875 20.804688 30.96875 C 24.082031 30.199219 27.796875 29.328125 30.980469 27.5 C 34.546875 25.457031 38.886719 22.453125 40.824219 17.3125 C 43.152344 11.144531 41.84375 7.257812 41.785156 7.097656 Z M 41.785156 7.097656 "/>
<path style=" stroke:none;fill-rule:nonzero;fill:rgb(100%,100%,100%);fill-opacity:1;" d="M 8.320312 41.210938 C 8.320312 41.210938 9.753906 35.320312 12.699219 33.171875 C 16.5625 30.351562 24.574219 30.453125 30.667969 26.960938 C 35.351562 24.433594 39.023438 22.09375 40.800781 17.382812 C 41.609375 15.234375 42.066406 13.164062 42.1875 11.523438 C 42.324219 9.6875 42.246094 8.457031 41.835938 7.167969 C 41.644531 6.578125 41.191406 6.679688 41.191406 6.679688 C 41.191406 6.679688 40.640625 10.894531 39.441406 12.875 C 37.773438 15.632812 32.101562 18.28125 27.386719 19.84375 C 24.394531 20.832031 21.875 21.210938 20.015625 22.058594 C 15.476562 24.128906 11.589844 27.839844 9.871094 31.945312 C 8.125 36.121094 8.320312 41.210938 8.320312 41.210938 Z M 8.320312 41.210938 "/>
<path style=" stroke:none;fill-rule:nonzero;fill:rgb(20.392157%,59.607846%,85.882354%);fill-opacity:1;" d="M 8.28125 40.820312 C 8.671875 35.9375 9.824219 32.996094 11.429688 30.578125 C 13.015625 28.183594 14.925781 26.300781 17.714844 24.871094 C 21.277344 23.042969 26.363281 22.078125 31.457031 20.585938 C 36.003906 19.257812 38.816406 16.558594 40.214844 13.234375 C 40.976562 11.421875 41.269531 8.960938 41.152344 6.699219 C 40.679688 8.765625 39.984375 11.109375 39.085938 12.914062 C 37.242188 14.703125 34.992188 16.289062 32.183594 17.582031 L 18.875 22.042969 C 15.453125 23.863281 12.535156 26.542969 10.648438 29.289062 C 9.226562 31.984375 8.363281 34.660156 8.210938 37.304688 C 8.007812 39.125 7.894531 40.40625 8.28125 40.820312 Z M 8.28125 40.820312 "/>
<path style=" stroke:none;fill-rule:nonzero;fill:rgb(94.509804%,76.862746%,5.882353%);fill-opacity:1;" d="M 9.605469 37.394531 C 10.457031 35.421875 11.746094 32.332031 14.53125 30.125 C 17.136719 28.066406 21.292969 26.78125 23.472656 26.527344 C 34.445312 25.25 38.605469 21.484375 39.828125 19.453125 C 38.324219 22.128906 35.730469 24.753906 32.671875 26.617188 C 29.335938 28.589844 25.863281 30.011719 22.191406 30.625 C 18.898438 31.007812 15.828125 31.847656 13.070312 33.351562 L 11.339844 35.328125 L 10.238281 37.671875 C 9.839844 38.707031 9.410156 39.734375 9.117188 40.742188 C 8.980469 41.257812 8.601562 41.320312 8.269531 41.273438 C 8.746094 39.742188 9.171875 38.402344 9.605469 37.394531 Z M 9.605469 37.394531 "/>
<path style=" stroke:none;fill-rule:nonzero;fill:rgb(60.784316%,34.901962%,71.372551%);fill-opacity:1;" d="M 10.253906 37.539062 C 11.144531 34.898438 12.453125 32.535156 15.242188 30.644531 C 17.570312 29.277344 20.523438 28.972656 22.863281 28.929688 C 25.207031 28.886719 27.878906 29.105469 29.609375 28.203125 C 27.9375 29.273438 25.746094 29.984375 23.085938 30.46875 C 23.085938 30.46875 16.953125 31.78125 14.902344 32.695312 C 13.121094 33.488281 11.730469 34.71875 10.253906 37.539062 Z M 10.253906 37.539062 "/>
<path style=" stroke:none;fill-rule:nonzero;fill:rgb(60.784316%,34.901962%,71.372551%);fill-opacity:1;" d="M 18.992188 24.296875 C 22.890625 21.804688 28.953125 20.75 34.257812 16.210938 C 33.914062 16.429688 33.375 16.695312 33.007812 16.855469 C 30.3125 18.027344 28.28125 18.671875 25.625 19.550781 C 19.941406 21.132812 17.980469 22.070312 14.921875 24.355469 C 13.683594 25.253906 12.542969 26.425781 11.542969 27.714844 C 10.570312 28.96875 9.824219 30.371094 9.148438 31.992188 C 8.183594 34.671875 7.773438 37.101562 7.832031 39.804688 L 7.832031 40.644531 C 7.925781 41.050781 8.074219 41.265625 8.300781 41.234375 L 8.378906 40.171875 C 8.835938 37.339844 9.300781 34.546875 10.171875 33.269531 C 11.414062 30.722656 12.765625 28.65625 14.261719 27.21875 C 15.765625 25.925781 17.34375 24.949219 18.992188 24.296875 Z M 18.992188 24.296875 "/>
</g>
</svg>
